# xmcd CD database file
#
# Track frame offsets:
#	182
#	14547
#	28980
#	45197
#	58850
#	72245
#	85642
#	100560
#	115340
#	128590
#	142612
#	156457
#	170972
#	184782
#	198570
#	212320
#
# Disc length: 2997 seconds
#
# Revision: 2
# Processed by: cddbd v1.4b41PL1 Copyright (c) Steve Scherf et al.
# Submitted via: Feurio! 1.50.2ß - http://www.feurio.com
#
DISCID=d70bb310
DTITLE=John Lee Hooker - Don't You Remember Me
DYEAR=1900
DGENRE=
TTITLE0=Stomp Boogie
TTITLE1=Who's Been Jiving You
TTITLE2=Black Man Blues
TTITLE3=Poor Joe
TTITLE4=Nightmare Blues
TTITLE5=Late Last Night
TTITLE6=Wandering Blues
TTITLE7=Don't Go Baby
TTITLE8=Devil's Jump
TTITLE9=I'm Gonna Kill That Woman
TTITLE10=Moaning Blues
TTITLE11=The Numbers
TTITLE12=Heart Trouble Blues
TTITLE13=Slim's Stomp
TTITLE14=Thinking Blues
TTITLE15=Don't You Remember Me
EXTD=
EXTT0=
EXTT1=
EXTT2=
EXTT3=
EXTT4=
EXTT5=
EXTT6=
EXTT7=
EXTT8=
EXTT9=
EXTT10=
EXTT11=
EXTT12=
EXTT13=
EXTT14=
EXTT15=
PLAYORDER=
